<?xml version="1.0" encoding="utf-8"?>
<!-- Generator: Adobe Illustrator 18.1.1, SVG Export Plug-In . SVG Version: 6.00 Build 0)  -->
<svg version="1.1" id="Слой_1" xmlns="http://www.w3.org/2000/svg" xmlns:xlink="http://www.w3.org/1999/xlink" x="0px" y="0px"
	 xml:space="preserve">
<path fill="#FE5252" d="M109,368.2H99c-2.7,0-5-2.3-5-5v-10c0-2.8,2.3-5,5-5h10c2.7,0,5,2.3,5,5v10C114,366,111.7,368.2,109,368.2z
	 M105.5,363.9c0.6,0,1-0.5,1-1c0-0.6-0.5-1-1-1c-0.6,0-1,0.5-1,1S104.9,363.9,105.5,363.9z M101.1,363.9c0.6,0,1-0.5,1-1
	c0-0.6-0.5-1-1-1c-0.6,0-1,0.5-1,1C100.1,363.4,100.5,363.9,101.1,363.9z M111.5,352.7H109c-0.1,0-0.1,0-0.1,0
	c-0.3,0-0.5,0.2-0.7,0.5l-0.7,1.9h-9.5c-0.4,0-0.7,0.3-0.7,0.7s0.3,0.7,0.7,0.7h9l-0.3,0.9h-8c-0.4,0-0.7,0.3-0.7,0.7
	c0,0.4,0.3,0.7,0.7,0.7h7.5l-0.3,0.9h-6.1c-0.4,0-0.7,0.3-0.7,0.7c0,0.4,0.3,0.7,0.7,0.7h6.5c0.2,0,0.4-0.1,0.5-0.3
	c0.1-0.1,0.1-0.1,0.1-0.3l2.4-6.5h2.1c0.4,0,0.7-0.3,0.7-0.7C112.2,353,111.9,352.7,111.5,352.7z"/>
</svg>
