<?xml version="1.0" encoding="utf-8"?>
<!-- Generator: Adobe Illustrator 18.1.1, SVG Export Plug-In . SVG Version: 6.00 Build 0)  -->
<svg version="1.1" id="Слой_1" xmlns="http://www.w3.org/2000/svg" xmlns:xlink="http://www.w3.org/1999/xlink" x="0px" y="0px" fill="#fff"
	 viewBox="-84 385.9 30 30.1" enable-background="new -84 385.9 30 30.1" xml:space="preserve">
<path d="M-61.5,416h-15c-4.1,0-7.5-3.4-7.5-7.5v-15c0-4.2,3.4-7.5,7.5-7.5h15c4.1,0,7.5,3.4,7.5,7.5v15C-54,412.6-57.4,416-61.5,416
	z M-66.7,409.5c0.9,0,1.5-0.7,1.5-1.5c0-0.9-0.7-1.5-1.5-1.5c-0.9,0-1.5,0.7-1.5,1.5C-68.2,408.8-67.6,409.5-66.7,409.5z
	 M-73.3,409.5c0.9,0,1.5-0.7,1.5-1.5c0-0.9-0.7-1.5-1.5-1.5c-0.9,0-1.5,0.7-1.5,1.5C-74.9,408.8-74.2,409.5-73.3,409.5z
	 M-57.7,392.7h-3.8c-0.1,0-0.1,0-0.2,0c-0.4,0-0.8,0.3-1,0.7l-1.1,2.9h-14.3c-0.6,0-1.1,0.5-1.1,1.1c0,0.6,0.5,1.1,1.1,1.1h13.5
	l-0.5,1.3h-12c-0.6,0-1.1,0.5-1.1,1.1c0,0.6,0.5,1.1,1.1,1.1h11.2l-0.5,1.3h-9.1c-0.6,0-1.1,0.5-1.1,1.1c0,0.6,0.5,1.1,1.1,1.1h9.8
	c0.3,0,0.6-0.1,0.8-0.4c0.1-0.1,0.2-0.2,0.2-0.4l3.6-9.8h3.2c0.6,0,1.1-0.5,1.1-1.1C-56.7,393.2-57.2,392.7-57.7,392.7z"/>
</svg>
