<?xml version="1.0" encoding="utf-8"?>
<!-- Generator: Adobe Illustrator 18.1.1, SVG Export Plug-In . SVG Version: 6.00 Build 0)  -->
<svg version="1.1" id="Слой_1" xmlns="http://www.w3.org/2000/svg" xmlns:xlink="http://www.w3.org/1999/xlink" x="0px" y="0px"
	 viewBox="-92 394.3 13.5 12.8" enable-background="new -92 394.3 13.5 12.8" xml:space="preserve">
<path fill="#FE5353" d="M-85.3,407c-3.7,0-6.8-2.9-6.8-6.4s3-6.4,6.8-6.4s6.8,2.9,6.8,6.4S-81.5,407-85.3,407z M-82.3,399.3
	c0.4-0.4,0.4-1.1,0-1.5c-0.4-0.4-1.2-0.4-1.6,0l-1.4,1.3l-1.4-1.3c-0.4-0.4-1.2-0.4-1.6,0c-0.4,0.4-0.4,1.1,0,1.5l1.4,1.3l-1.4,1.3
	c-0.4,0.4-0.4,1.1,0,1.5c0.4,0.4,1.2,0.4,1.6,0l1.4-1.3l1.4,1.3c0.4,0.4,1.2,0.4,1.6,0c0.4-0.4,0.4-1.1,0-1.5l-1.4-1.3L-82.3,399.3z
	"/>
</svg>
