<?xml version="1.0" encoding="utf-8"?>
<!-- Generator: Adobe Illustrator 18.1.1, SVG Export Plug-In . SVG Version: 6.00 Build 0)  -->
<svg version="1.1" id="Слой_1" xmlns="http://www.w3.org/2000/svg" xmlns:xlink="http://www.w3.org/1999/xlink" x="0px" y="0px" fill="#4b4b4b"
	 viewBox="-84 385.9 30 30.1" enable-background="new -84 385.9 30 30.1" xml:space="preserve">
<path d="M-61.5,416h-15c-4.1,0-7.5-3.4-7.5-7.5v-15c0-4.2,3.4-7.5,7.5-7.5h15c4.1,0,7.5,3.4,7.5,7.5v15C-54,412.6-57.4,416-61.5,416
	z M-59.4,407.9l-3.7-3.7c0.8-1.3,1.3-2.9,1.3-4.6c0-4.8-3.9-8.7-8.7-8.7c-4.8,0-8.7,3.9-8.7,8.7c0,4.8,3.9,8.7,8.7,8.7
	c1.7,0,3.3-0.5,4.6-1.3l3.7,3.7c0.6,0.6,1.5,0.6,2.1,0l0.6-0.6C-58.8,409.4-58.8,408.5-59.4,407.9z M-70.4,405.8
	c-3.5,0-6.3-2.8-6.3-6.3c0-3.5,2.8-6.3,6.3-6.3c3.5,0,6.3,2.8,6.3,6.3C-64.2,403-67,405.8-70.4,405.8z"/>
</svg>
