<?xml version="1.0" encoding="utf-8"?>
<!-- Generator: Adobe Illustrator 18.1.1, SVG Export Plug-In . SVG Version: 6.00 Build 0)  -->
<svg version="1.1" id="Слой_1" xmlns="http://www.w3.org/2000/svg" xmlns:xlink="http://www.w3.org/1999/xlink" x="0px" y="0px"
	 viewBox="-84 389.8 31 23.2" enable-background="new -84 389.8 31 23.2" xml:space="preserve">
<path fill="#33ccff" d="M-83.7,407.2c0,0,4.2,1.7,5.9,1.7c0,0,3.3,0.9,5.5-2c0,0,0.5-0.8-0.2-1.2c0,0-7.1-2.2-6.6-3.5c0,0,0-0.7,0.9-0.5
	c0,0,1-0.9,0.5-1.2c0,0-0.8-0.7-0.2-0.8c0,0,1.6,0.1,2.2,0.3c0,0,0.4-0.1,0-0.4c-0.4-0.3-1-0.9-0.9-1.1c0,0,0.2-0.5,1.2-0.1
	c0,0,0.3-0.1,0-0.4c0,0-0.9-0.5-0.4-0.9c0,0,1.3-0.8,4.2,2.7c0,0,0.5,0.7,0.6,0c0,0,2.1-9.2,5.6-9.8c0,0,1.1,0.2,1.3-0.1
	c0,0,1-0.4,1.3-0.1c0,0,0.3,0.5,0.7,0.2c0,0,1.4-0.5,1,0.3c0,0-1.4,1.3-1.9,1.4c-0.5,0-0.4,0.5,0,0.5c0,0,5.8,0.5,5.8,4.7
	c0,0,0.3,1,1.4,0c0,0,1.6-1,2-1.1c0,0,0.4-0.3,0.4,0.4c0,0-1.2,2-2.4,2.6c0,0-0.7,0.9,0.3,0.7c0,0,1-0.2,1.5-0.5
	c0,0,1.2-0.6,0.7,0.5c0,0-2.6,1.7-3.2,1.7c0,0-0.4,0.1-0.4,0.4c0,0-0.3,11.2-14.8,11.2c0,0-7.3,0.6-12-5
	C-83.5,408-84.5,407-83.7,407.2z"/>
</svg>
